<?xml version="1.0" encoding="UTF-8"?>
<svg id="Layer_1" data-name="Layer 1" xmlns="http://www.w3.org/2000/svg" version="1.1" viewBox="0 0 401.8 443.9">
  <defs>
    <style>
      .cls-1 {
        fill: #fff;
        stroke-width: 0px;
      }
    </style>
  </defs>
  <path class="cls-1" d="M295.3,288.2c47.1-51.5,43.5-131.3-8-178.4-20.5-18.7-46.6-30.2-74.2-32.6-27.1-2.3-54.2,4.1-77.3,18.3l10.2,16.6c40.4-24.9,93.1-20,128.1,12.1,43.5,39.8,46.5,107.4,6.7,150.9-14.3,15.7-33,26.7-53.7,31.7v20c26.2-5.3,50.1-18.8,68.1-38.6Z"/>
  <path class="cls-1" d="M81.9,164.2c-21.4,66.4,15.1,137.7,81.5,159.1,3.7,1.2,7.4,2.2,11.2,3.1v-20.1c-57.1-15.2-91-73.8-75.7-130.9.5-1.7,1-3.5,1.5-5.2l-18.5-6Z"/>
  <path class="cls-1" d="M184.8,41.9C96.2,50.8,31.6,129.8,40.5,218.3c6.5,64.5,51,118.9,112.9,138,7,2.2,14.1,3.8,21.3,5v-19.8c-5.2-1-10.4-2.3-15.5-3.9-74.7-23.1-116.6-102.5-93.4-177.2,23.1-74.7,102.5-116.6,177.2-93.4,18,5.6,34.7,14.7,49.2,26.8l12.5-14.9c-33.4-28-76.6-41.3-119.9-37Z"/>
  <path class="cls-1" d="M399.7,187.1C391.3,77.2,295.5-5,185.6,3.5,75.8,11.9-6.4,107.7,2,217.6c7.2,94,79.2,170.1,172.6,182.5v-19.7c-98.2-14.5-166.1-106-151.6-204.2C37.6,77.8,129.1,10,227.3,24.5c98.2,14.5,166.1,106,151.6,204.2-1.5,10.4-4,20.7-7.3,30.7l18.5,6.2c8.5-25.3,11.8-52,9.7-78.6Z"/>
  <path class="cls-1" d="M227.2,380.3v19.7c22.7-3,44.8-9.9,65.2-20.4l-8.9-17.3c-17.6,9.1-36.6,15.2-56.2,18.1Z"/>
  <path class="cls-1" d="M341.9,188.1c7.3,73.1-42.5,139.7-114.7,153.4v19.8c83.9-13.9,142.6-90.6,134.1-175.2l-19.4,2Z"/>
  <polygon class="cls-1" points="274.1 214.5 260.3 200.7 210.7 250.2 210.7 124.7 191.2 124.7 191.2 182.2 137.8 140 125.7 155.3 191.2 207 191.2 441 210.7 441 210.7 277.7 274.1 214.5"/>
</svg>